<svg id="ebkoCWdSUR31" xmlns="http://www.w3.org/2000/svg" xmlns:xlink="http://www.w3.org/1999/xlink" viewBox="0 0 1920 1080" shape-rendering="geometricPrecision" text-rendering="geometricPrecision" project-id="0c2b739cb87944af98f2d57fe06c5f69" export-id="35ade85455624dea8abfa58860bd92b0" cached="false" width="1920" height="1080"><path d="M-4.04495,644.700353c143.143858-86.550181,183.487946,5.945318,242.961222,88.836663c0,0,88.836662,130.296941,208.131609,114.218566c110.647362-14.912868,31.97953-391.757693,205.59342-439.106933c59.94301-16.34809,197.978848,88.836663,248.032856,117.194048C952.001874,554.921683,1020.678904,550.145123,1086.741573,540c82.632321-12.689694,51.4359-165.201335,134.45437-159.271445c118.77973,8.48427,180.320967,236.365872,261.433607,145.114142c46.21275-51.98935,61.09974-241.742207,135.34797-258.876417c101.32635-23.38301,203.83211,40.801806,297.97753-15.685434" transform="translate(4.04495 2.53819)" fill="none" fill-rule="evenodd" stroke="#94b9e3" stroke-width="15" stroke-linecap="round" stroke-linejoin="round"/></svg>
